<svg width="37" height="36" viewBox="0 0 37 36" fill="none" xmlns="http://www.w3.org/2000/svg">
<path d="M0.450195 18C0.450195 8.05888 8.50907 0 18.4502 0C28.3913 0 36.4502 8.05888 36.4502 18C36.4502 27.9411 28.3913 36 18.4502 36C8.50907 36 0.450195 27.9411 0.450195 18Z" fill="white"/>
<path d="M22.45 11.3335H20.45C19.566 11.3335 18.7181 11.6847 18.093 12.3098C17.4679 12.9349 17.1167 13.7828 17.1167 14.6668V16.6668H15.1167V19.3335H17.1167V24.6668H19.7834V19.3335H21.7834L22.45 16.6668H19.7834V14.6668C19.7834 14.49 19.8536 14.3204 19.9786 14.1954C20.1037 14.0704 20.2732 14.0002 20.45 14.0002H22.45V11.3335Z" fill="#FB5607"/>
</svg>
