<svg width="36" height="36" viewBox="0 0 36 36" fill="none" xmlns="http://www.w3.org/2000/svg">
<path d="M0 18C0 8.05888 8.05888 0 18 0C27.9411 0 36 8.05888 36 18C36 27.9411 27.9411 36 18 36C8.05888 36 0 27.9411 0 18Z" fill="white"/>
<path d="M25.3332 11.9999C24.6948 12.4502 23.9879 12.7946 23.2398 13.0199C22.8383 12.5582 22.3047 12.231 21.7112 12.0825C21.1177 11.934 20.4928 11.9713 19.9212 12.1895C19.3496 12.4077 18.8588 12.7961 18.5152 13.3023C18.1715 13.8086 17.9916 14.4081 17.9998 15.0199V15.6865C16.8283 15.7169 15.6674 15.4571 14.6205 14.9302C13.5737 14.4033 12.6734 13.6256 11.9998 12.6665C11.9998 12.6665 9.33317 18.6665 15.3332 21.3332C13.9602 22.2652 12.3246 22.7325 10.6665 22.6665C16.6665 25.9999 23.9998 22.6665 23.9998 14.9999C23.9992 14.8142 23.9814 14.6289 23.9465 14.4465C24.6269 13.7755 25.1071 12.9283 25.3332 11.9999Z" fill="#FB5607"/>
</svg>
